# xmcd
#
# Track frame offsets:
#	150
#	18666
#	31858
#	49432
#	68448
#	83722
#	100236
#	117225
#	133304
#	149733
#	168072
#	187725
#	203344
#	222107
#	237161
#
# Disc length: 3413 seconds
#
# Revision: 1
# Processed by: cddbd v1.5.2PL0 Copyright (c) Steve Scherf et al.
# Submitted via: audiograbber 1.83.01
#
DISCID=c90d530f
DTITLE=Shania Twain - Greatest hits Disc 1
DYEAR=1900
DGENRE=Country
TTITLE0=Any man of mine
TTITLE1=Come on over
TTITLE2=Juanita
TTITLE3=From the moment on (Live)
TTITLE4=Waiter, bring me water
TTITLE5=What a way to wanne be
TTITLE6=C'est la vie
TTITLE7=You're still the one
TTITLE8=When
TTITLE9=Thank you baby
TTITLE10=We gonna rock this country
TTITLE11=I'm holdin' on to love
TTITLE12=When you kiss me
TTITLE13=In my car
TTITLE14=Nah!
EXTD=
EXTT0=
EXTT1=
EXTT2=
EXTT3=
EXTT4=
EXTT5=
EXTT6=
EXTT7=
EXTT8=
EXTT9=
EXTT10=
EXTT11=
EXTT12=
EXTT13=
EXTT14=
PLAYORDER=
